<svg width="148" height="199" viewBox="0 0 148 199" fill="none" xmlns="http://www.w3.org/2000/svg">
<path d="M28.7549 0.00585937C29.2969 0.00585937 29.2969 0.00585937 29.8506 0.00292969C30.8115 0.00292969 31.7725 0.00585937 32.7305 0.0117187C33.7002 0.0146484 34.6699 0.00585937 35.6397 0.00292969C36.3838 0.00292969 37.128 0.00292969 37.8721 0.00585937C38.2207 0.00292969 38.5664 0.00292969 38.9239 0C41.1651 0.0205078 43.1573 0.181641 45.0469 1.4707C46.5821 3.19043 46.7549 4.75781 46.8867 7.00781C46.9453 7.7168 47.0098 8.42871 47.0772 9.1377C47.1094 9.49219 47.1416 9.84961 47.1739 10.2158C48.6563 23.7803 54.2725 37.998 63.6094 48.0293C64.1807 48.6475 64.7285 49.2803 65.2705 49.9277C66.5332 51.3809 67.9776 52.6465 69.4102 53.9297C69.8145 54.29 70.2129 54.6562 70.6114 55.0225C72.1992 56.4697 73.8369 57.8467 75.5098 59.2002C84.4717 66.457 91.1924 73.2598 92.9912 85.084C93.041 85.3975 93.0908 85.7109 93.1436 86.0361C93.3809 87.5566 93.6065 89.0801 93.8057 90.6064C93.8438 90.873 93.8789 91.1367 93.9141 91.4092C93.9815 91.9014 94.043 92.3936 94.1016 92.8857C94.3037 94.3887 94.6699 95.3232 95.6279 96.5098C96.293 96.8408 96.7354 96.8789 97.4766 96.9111C97.6992 96.9258 97.9219 96.9404 98.1533 96.9551C99.252 96.7148 99.6533 96.2344 100.315 95.3379C100.509 94.4824 100.482 93.665 100.444 92.792C100.438 92.5459 100.433 92.2998 100.427 92.0479C100.4 91.2891 100.362 90.5303 100.315 89.7715C100.304 89.5488 100.289 89.3262 100.274 89.0947C99.4629 77.2676 94.0928 65.9063 85.166 58.0342C83.4903 56.6426 81.7061 55.3857 79.9453 54.1055C74.6455 50.2529 69.7764 45.7236 65.7451 40.5527C65.5342 40.2979 65.3233 40.0459 65.1065 39.7852C63.4571 37.7959 61.916 35.9326 62.0479 33.2256C62.833 29.4727 65.3643 25.8662 67.1983 22.5498C68.1944 20.7451 69.1436 18.9199 70.0782 17.0859C70.1895 16.8721 70.3008 16.6553 70.4151 16.4326C70.5117 16.2451 70.6084 16.0576 70.7051 15.8643C71.1914 15.0762 71.5694 14.5693 72.4834 14.3145C75.5127 14.1943 78.1963 15.5332 80.9444 16.6582C81.4834 16.875 82.0225 17.0918 82.5645 17.3057C83.8623 17.8271 85.1573 18.3574 86.4522 18.8877C87.0586 19.1338 87.6651 19.3799 88.2715 19.623C89.1446 19.9717 90.0176 20.3262 90.8848 20.6865C91.1221 20.7803 91.3594 20.877 91.6026 20.9736C93.1172 21.6182 93.9961 22.3447 94.749 23.8535C94.8867 25.374 94.7051 26.6514 94.2979 28.1221C93.8877 30.2842 93.6445 33.1289 94.9043 35.0508C96.5362 37.0195 99.1465 37.875 101.47 38.7217C102.147 38.9766 102.826 39.2314 103.503 39.4834C103.849 39.6123 104.194 39.7412 104.549 39.873C120.999 45.9844 135.39 53.5576 143.068 70.1836C144.167 72.6445 145.002 75.167 145.726 77.7598C145.814 78.0703 145.901 78.3838 145.989 78.7031C148.078 86.9092 147.636 96.1289 146.312 104.42C146.256 104.771 146.203 105.123 146.145 105.486C145.969 106.608 145.784 107.73 145.597 108.85C145.541 109.189 145.485 109.532 145.427 109.881C144.636 114.41 143.256 118.761 141.861 123.132C141.779 123.398 141.694 123.662 141.606 123.935C138.272 134.391 134.235 144.416 129.319 154.225C129.149 154.564 128.98 154.904 128.807 155.256C125.71 161.432 122.206 167.276 118.389 173.03C118.175 173.35 117.961 173.672 117.741 174.003C114.548 178.767 110.994 183.167 107.054 187.33C106.834 187.564 106.614 187.802 106.389 188.045C100.541 194.13 92.7188 198.627 84.167 198.829C76.1778 198.756 69.4658 194.265 63.9873 188.795C57.2989 181.497 52.793 171.92 49.7959 162.574C46.7871 153.419 40.919 145.424 33.5918 139.192C32.625 138.357 31.6787 137.508 30.7354 136.646C29.8096 135.8 28.8809 134.962 27.9346 134.139C24.9229 131.514 22.0489 128.848 19.4561 125.807C19.2276 125.546 19.002 125.285 18.7676 125.019C13.5645 119.033 9.01174 112.512 5.68655 105.299C5.59866 105.111 5.51077 104.921 5.41994 104.728C3.99612 101.675 2.87698 98.5547 1.87795 95.3379C1.78713 95.0537 1.69924 94.7666 1.60549 94.4736C0.290063 90.0234 -0.0234131 85.5732 0.00588373 80.959C0.0117431 80.0859 0.00588248 79.21 2.31039e-05 78.3369C-0.00290658 74.918 0.272485 71.7217 0.999048 68.3848C1.05764 68.1006 1.1133 67.8164 1.1719 67.5205C2.91799 58.8721 6.97854 51.0527 11.2207 43.3857C16.5908 33.6563 21.5362 23.7539 21.5479 12.4043C21.5537 11.8477 21.5596 11.291 21.5655 10.7344C21.5742 9.86426 21.5801 8.99707 21.5801 8.12988C21.583 7.2832 21.5918 6.43945 21.6035 5.59277C21.6006 5.33496 21.6006 5.07715 21.5977 4.81055C21.6211 3.60645 21.6885 2.7334 22.4356 1.75781C24.4248 -0.0556641 26.1651 -0.00878906 28.7549 0.00585937Z" fill="#FCF9E8"/>
</svg>
