<svg width="300" height="300" viewBox="0 0 300 300" fill="none" xmlns="http://www.w3.org/2000/svg">
<g clip-path="url(#clip0_232_6)">
<path d="M0 0C99 0 198 0 300 0C300 99 300 198 300 300C201 300 102 300 0 300C0 201 0 102 0 0Z" fill="#FCF9E8"/>
<path d="M105.392 49.395C105.934 49.395 105.934 49.395 106.488 49.3921C107.449 49.3921 108.41 49.395 109.368 49.4009C110.337 49.4038 111.307 49.395 112.277 49.3921C113.021 49.3921 113.765 49.3921 114.509 49.395C114.858 49.3921 115.204 49.3921 115.561 49.3892C117.802 49.4097 119.794 49.5708 121.684 50.8599C123.219 52.5796 123.392 54.147 123.524 56.397C123.583 57.106 123.647 57.8179 123.714 58.5269C123.747 58.8813 123.779 59.2388 123.811 59.605C125.293 73.1694 130.91 87.3872 140.247 97.4185C140.818 98.0366 141.366 98.6694 141.908 99.3169C143.17 100.77 144.615 102.036 146.047 103.319C146.452 103.679 146.85 104.045 147.249 104.412C148.836 105.859 150.474 107.236 152.147 108.589C161.109 115.846 167.83 122.649 169.628 134.473C169.678 134.787 169.728 135.1 169.781 135.425C170.018 136.946 170.244 138.469 170.443 139.996C170.481 140.262 170.516 140.526 170.551 140.798C170.619 141.291 170.68 141.783 170.739 142.275C170.941 143.778 171.307 144.712 172.265 145.899C172.93 146.23 173.373 146.268 174.114 146.3C174.336 146.315 174.559 146.33 174.791 146.344C175.889 146.104 176.291 145.624 176.953 144.727C177.146 143.872 177.12 143.054 177.082 142.181C177.076 141.935 177.07 141.689 177.064 141.437C177.038 140.678 177 139.919 176.953 139.161C176.941 138.938 176.926 138.715 176.912 138.484C176.1 126.657 170.73 115.295 161.803 107.423C160.127 106.032 158.343 104.775 156.583 103.495C151.283 99.6421 146.414 95.1128 142.382 89.9419C142.171 89.687 141.96 89.4351 141.744 89.1743C140.094 87.1851 138.553 85.3218 138.685 82.6147C139.47 78.8618 142.001 75.2554 143.835 71.939C144.832 70.1343 145.781 68.3091 146.715 66.4751C146.827 66.2612 146.938 66.0444 147.052 65.8218C147.149 65.6343 147.246 65.4468 147.342 65.2534C147.829 64.4653 148.207 63.9585 149.121 63.7036C152.15 63.5835 154.833 64.9224 157.582 66.0474C158.121 66.2642 158.66 66.481 159.202 66.6948C160.5 67.2163 161.794 67.7466 163.089 68.2769C163.696 68.5229 164.302 68.769 164.909 69.0122C165.782 69.3608 166.655 69.7153 167.522 70.0757C167.759 70.1694 167.997 70.2661 168.24 70.3628C169.754 71.0073 170.633 71.7339 171.386 73.2427C171.524 74.7632 171.342 76.0405 170.935 77.5112C170.525 79.6733 170.282 82.5181 171.541 84.4399C173.173 86.4087 175.784 87.2642 178.107 88.1108C178.784 88.3657 179.463 88.6206 180.14 88.8726C180.486 89.0015 180.832 89.1304 181.186 89.2622C197.636 95.3735 212.027 102.947 219.706 119.573C220.804 122.034 221.639 124.556 222.363 127.149C222.451 127.459 222.539 127.773 222.626 128.092C224.715 136.298 224.273 145.518 222.949 153.809C222.893 154.161 222.84 154.512 222.782 154.875C222.606 155.998 222.421 157.12 222.234 158.239C222.178 158.579 222.123 158.921 222.064 159.27C221.273 163.799 219.893 168.15 218.499 172.521C218.417 172.788 218.332 173.051 218.244 173.324C214.91 183.78 210.873 193.805 205.957 203.614C205.787 203.954 205.617 204.293 205.444 204.645C202.347 210.821 198.843 216.666 195.026 222.419C194.812 222.739 194.598 223.061 194.378 223.392C191.185 228.156 187.631 232.556 183.691 236.719C183.471 236.954 183.251 237.191 183.026 237.434C177.178 243.519 169.356 248.016 160.804 248.218C152.815 248.145 146.103 243.654 140.625 238.184C133.936 230.886 129.43 221.309 126.433 211.963C123.424 202.808 117.556 194.813 110.229 188.582C109.262 187.747 108.316 186.897 107.373 186.036C106.447 185.189 105.518 184.351 104.572 183.528C101.56 180.903 98.686 178.237 96.0933 175.196C95.8647 174.935 95.6392 174.674 95.4048 174.408C90.2017 168.422 85.6489 161.901 82.3237 154.688C82.2358 154.5 82.1479 154.31 82.0571 154.117C80.6333 151.064 79.5142 147.944 78.5151 144.727C78.4243 144.443 78.3364 144.156 78.2427 143.863C76.9272 139.413 76.6138 134.962 76.6431 130.348C76.6489 129.475 76.6431 128.599 76.6372 127.726C76.6343 124.307 76.9097 121.111 77.6362 117.774C77.6948 117.49 77.7505 117.206 77.8091 116.91C79.5552 108.261 83.6157 100.442 87.8579 92.7749C93.228 83.0454 98.1733 73.1431 98.1851 61.7935C98.1909 61.2368 98.1968 60.6802 98.2026 60.1235C98.2114 59.2534 98.2173 58.3862 98.2173 57.519C98.2202 56.6724 98.229 55.8286 98.2407 54.9819C98.2378 54.7241 98.2378 54.4663 98.2349 54.1997C98.2583 52.9956 98.3257 52.1226 99.0727 51.147C101.062 49.3335 102.802 49.3804 105.392 49.395Z" fill="#201B21"/>
</g>
<defs>
<clipPath id="clip0_232_6">
<rect width="300" height="300" fill="white"/>
</clipPath>
</defs>
</svg>
